<svg width="60" height="27" viewBox="0 0 60 27" fill="none" xmlns="http://www.w3.org/2000/svg">
<path d="M41.6891 8.15624H38.4828V22.6953C38.4828 25.8001 35.1014 27.2902 32.5617 25.8202C32.0086 25.4999 31.0013 24.2376 31.0013 23.6333V8.15624H27.6614V23.4993C27.6614 24.1318 26.7676 25.3069 26.2359 25.6875C23.8071 27.4228 20.2667 25.9153 20.1759 22.8346C20.4605 17.8538 19.8139 12.4831 20.1759 7.54922C20.4685 3.56405 23.3141 1.16946 27.1884 0.914861C32.1703 0.5879 37.5209 1.15874 42.5415 0.938981C46.2288 1.3048 48.8994 3.77443 49.1773 7.54922C49.5393 12.4831 48.8914 17.8538 49.1773 22.8346C49.1025 26.0292 45.2495 27.5072 42.8915 25.5106C42.468 25.1515 41.6905 24.0192 41.6905 23.4993V8.15624H41.6891Z" fill="white"/>
<path d="M7.48814 8.15624C7.59769 8.46846 7.78472 8.67348 8.03322 8.88253C10.1948 10.709 12.82 11.2972 14.9041 13.7829C18.3376 17.878 17.5187 24.4132 11.9984 26.0131C10.2656 26.5156 4.7427 26.6269 2.93914 26.3213C-1.25984 25.6111 -0.750834 19.1443 3.41474 19.1443H9.49344C9.41061 18.9058 9.27434 18.7182 9.08597 18.548C7.31713 16.9614 4.45814 16.1011 2.61048 14.1889C-2.06677 9.35153 -0.346033 1.45221 6.8816 0.914864C8.5155 0.794264 12.4032 0.712524 13.9356 0.952384C17.6776 1.53663 18.0063 7.08022 14.5448 7.92978C14.2923 7.99142 13.3678 8.1549 13.166 8.1549H7.48814V8.15624Z" fill="white"/>
<path d="M55.9934 26.4191C57.9989 26.4191 59.6246 24.7885 59.6246 22.777C59.6246 20.7655 57.9989 19.1349 55.9934 19.1349C53.988 19.1349 52.3622 20.7655 52.3622 22.777C52.3622 24.7885 53.988 26.4191 55.9934 26.4191Z" fill="white"/>
</svg>
