<svg width="126" height="31" viewBox="0 0 126 31" fill="none" xmlns="http://www.w3.org/2000/svg">
<g clip-path="url(#clip0_37_20)">
<path d="M41.6892 9.65624H38.4828V24.1953C38.4828 27.3001 35.1015 28.7902 32.5618 27.3202C32.0087 26.9999 31.0014 25.7376 31.0014 25.1333V9.65624H27.6614V24.9993C27.6614 25.6318 26.7676 26.807 26.2359 27.1875C23.8071 28.9228 20.2668 27.4153 20.1759 24.3346C20.4605 19.3538 19.8139 13.9831 20.1759 9.04922C20.4685 5.06405 23.3141 2.66947 27.1885 2.41486C32.1703 2.0879 37.5209 2.65875 42.5415 2.43898C46.2288 2.80481 48.8994 5.27443 49.1773 9.04922C49.5394 13.9831 48.8914 19.3538 49.1773 24.3346C49.1025 27.5292 45.2495 29.0072 42.8916 27.0106C42.468 26.6515 41.6905 25.5192 41.6905 24.9993V9.65624H41.6892Z" fill="#1C2B4C"/>
<path d="M7.48815 9.65624C7.5977 9.96846 7.78474 10.1735 8.03323 10.3825C10.1948 12.209 12.82 12.7972 14.9042 15.2829C18.3376 19.378 17.5187 25.9132 11.9984 27.5131C10.2656 28.0156 4.74272 28.1269 2.93915 27.8213C-1.25983 27.1111 -0.750818 20.6443 3.41476 20.6443H9.49345C9.41062 20.4058 9.27435 20.2182 9.08598 20.048C7.31715 18.4614 4.45816 17.6011 2.6105 15.6889C-2.06676 10.8515 -0.346018 2.95221 6.88162 2.41486C8.51552 2.29426 12.4032 2.21252 13.9356 2.45238C17.6776 3.03663 18.0063 8.58022 14.5448 9.42978C14.2923 9.49142 13.3678 9.6549 13.1661 9.6549H7.48815V9.65624Z" fill="#1C2B4C"/>
<path d="M55.9935 27.9191C57.9989 27.9191 59.6247 26.2885 59.6247 24.277C59.6247 22.2655 57.9989 20.6349 55.9935 20.6349C53.988 20.6349 52.3623 22.2655 52.3623 24.277C52.3623 26.2885 53.988 27.9191 55.9935 27.9191Z" fill="#1C2B4C"/>
<path d="M69.1248 5.49821H70.1869L71.07 12.1915H71.2049L72.5222 5.49821H73.8395L75.1567 12.1915H75.2917L76.1747 5.49821H77.2074L76.0251 13.2421H74.4687L73.2423 6.75915H73.122L71.8649 13.2421H70.3085L69.1261 5.49821H69.1248Z" fill="#3C3C3B"/>
<path d="M78.6557 9.38422C78.6557 6.90789 80.1065 5.31731 82.2013 5.31731C84.2961 5.31731 85.6281 6.90789 85.6281 9.0988V9.66964H79.9128V10.0301C79.9128 11.3956 80.8253 12.3858 82.2775 12.3858C83.3102 12.3858 84.0877 11.8753 84.4925 11.0351L85.3756 11.6354C84.912 12.6712 83.8045 13.4217 82.2788 13.4217C80.0638 13.4217 78.6583 11.8311 78.6583 9.38422H78.6557ZM79.9128 8.66464V8.76916H84.3416V8.60434C84.3416 7.23888 83.4732 6.30757 82.2013 6.30757C80.9295 6.30757 79.9115 7.31258 79.9115 8.6633L79.9128 8.66464Z" fill="#3C3C3B"/>
<path d="M88.0529 2.13614H89.2499V6.75915H89.3101C89.8044 5.81311 90.6113 5.31865 91.6894 5.31865C93.5745 5.31865 94.7114 6.83419 94.7114 9.37082C94.7114 11.9074 93.5745 13.423 91.6894 13.423C90.6126 13.423 89.8044 12.9272 89.3101 11.9825H89.2499V13.2434H88.0529V2.13614ZM93.4249 10.0301V8.70886C93.4249 7.31258 92.6166 6.38261 91.2259 6.38261C90.1638 6.38261 89.2513 6.93738 89.2513 7.9732V10.7644C89.2513 11.8002 90.1638 12.355 91.2259 12.355C92.618 12.355 93.4249 11.425 93.4249 10.0288V10.0301Z" fill="#3C3C3B"/>
<path d="M75.0352 25.4723H74.975C74.4807 26.4183 73.6738 26.9128 72.5957 26.9128C70.7106 26.9128 69.5737 25.3973 69.5737 22.8606C69.5737 20.324 70.7106 18.8085 72.5957 18.8085C73.6725 18.8085 74.4807 19.3043 74.975 20.249H75.0352V15.626H76.2322V26.7319H75.0352V25.471V25.4723ZM75.0352 24.2569V21.4657C75.0352 20.4299 74.1227 19.8751 73.0606 19.8751C71.6685 19.8751 70.8616 20.8051 70.8616 22.2014V23.5226C70.8616 24.9189 71.6698 25.8488 73.0606 25.8488C74.1227 25.8488 75.0352 25.2941 75.0352 24.2583V24.2569Z" fill="#3C3C3B"/>
<path d="M78.6557 22.8767C78.6557 20.4004 80.1065 18.8098 82.2013 18.8098C84.2961 18.8098 85.6281 20.4004 85.6281 22.5913V23.1621H79.9128V23.5226C79.9128 24.8881 80.8253 25.8783 82.2775 25.8783C83.3102 25.8783 84.0877 25.3678 84.4925 24.5276L85.3756 25.1279C84.912 26.1637 83.8045 26.9142 82.2788 26.9142C80.0638 26.9142 78.6583 25.3236 78.6583 22.8767H78.6557ZM79.9128 22.1558V22.2603H84.3416V22.0955C84.3416 20.73 83.4732 19.7987 82.2013 19.7987C80.9295 19.7987 79.9115 20.8037 79.9115 22.1545L79.9128 22.1558Z" fill="#3C3C3B"/>
<path d="M87.6334 25.3973L88.4417 24.6924C89.1751 25.4723 90.0128 25.9078 91.2392 25.9078C92.4657 25.9078 93.2886 25.487 93.2886 24.5718C93.2886 23.7611 92.63 23.5507 91.9273 23.4462L90.7155 23.2667C89.6227 23.1018 88.0676 22.8017 88.0676 21.12C88.0676 19.5736 89.3849 18.8085 91.1804 18.8085C92.5725 18.8085 93.5892 19.2735 94.3227 20.0547L93.5451 20.7903C93.1857 20.3548 92.4977 19.8148 91.1364 19.8148C89.9246 19.8148 89.2513 20.2503 89.2513 21.0449C89.2513 21.8396 89.9246 22.066 90.6126 22.1705L91.8244 22.3501C92.9319 22.5149 94.4723 22.8151 94.4723 24.4968C94.4723 26.0271 93.1857 26.9128 91.2098 26.9128C89.5933 26.9128 88.4417 26.3125 87.6334 25.3973Z" fill="#3C3C3B"/>
<path d="M97.195 25.7122H99.9778V20.0091H97.195V18.988H101.175V25.7122H103.779V26.7333H97.195V25.7122ZM99.6345 16.513V16.2732C99.6345 15.8377 99.8883 15.508 100.578 15.508C101.267 15.508 101.521 15.8377 101.521 16.2732V16.513C101.521 16.9485 101.267 17.2782 100.578 17.2782C99.8883 17.2782 99.6345 16.9485 99.6345 16.513Z" fill="#3C3C3B"/>
<path d="M109.091 29.9144C106.607 29.9144 105.589 29.2243 105.589 27.9929C105.589 27.1674 106.053 26.7172 106.846 26.5068V26.3272C106.412 26.1168 106.158 25.7872 106.158 25.2619C106.158 24.466 106.757 24.1068 107.55 23.9112V23.8509C106.607 23.4301 106.039 22.5752 106.039 21.4791C106.039 19.9033 107.222 18.8071 109.032 18.8071C109.616 18.8071 110.125 18.9117 110.557 19.122V18.9867C110.557 18.3864 110.811 17.9361 111.485 17.9361H112.906V18.9867H111.171V19.512C111.724 19.9917 112.039 20.6671 112.039 21.4778C112.039 23.0536 110.842 24.1497 109.032 24.1497C108.778 24.1497 108.537 24.135 108.298 24.0894C107.835 24.1792 107.191 24.4499 107.191 24.9752C107.191 25.4401 107.7 25.546 108.433 25.546H110.139C112.13 25.546 112.982 26.3567 112.982 27.6177C112.982 29.1788 111.665 29.9144 109.092 29.9144H109.091ZM110.182 26.6582H107.503C106.994 26.8686 106.726 27.213 106.726 27.7088C106.726 28.3841 107.22 28.955 108.476 28.955H109.644C111.036 28.955 111.859 28.5195 111.859 27.6793C111.859 27.0642 111.424 26.6582 110.183 26.6582H110.182ZM110.782 21.6908V21.2553C110.782 20.3401 110.229 19.7398 109.032 19.7398C107.835 19.7398 107.296 20.3401 107.296 21.2553V21.6908C107.296 22.606 107.849 23.2211 109.032 23.2211C110.214 23.2211 110.782 22.606 110.782 21.6908Z" fill="#3C3C3B"/>
<path d="M115.03 26.7333V18.9894H116.227V20.2503H116.287C116.616 19.4852 117.215 18.8098 118.486 18.8098C120.103 18.8098 121.165 19.8899 121.165 21.7659V26.7333H119.968V21.9762C119.968 20.5652 119.324 19.8751 118.143 19.8751C117.185 19.8751 116.227 20.3401 116.227 21.3612V26.7346H115.03V26.7333Z" fill="#3C3C3B"/>
</g>
<defs>
<clipPath id="clip0_37_20">
<rect width="126" height="30" fill="white" transform="translate(0 0.5)"/>
</clipPath>
</defs>
</svg>
