<svg width="126" height="30" viewBox="0 0 126 30" fill="none" xmlns="http://www.w3.org/2000/svg">
<g clip-path="url(#clip0_96_2)">
<path d="M41.6891 9.15624H38.4828V23.6953C38.4828 26.8001 35.1014 28.2902 32.5617 26.8202C32.0087 26.4999 31.0013 25.2376 31.0013 24.6333V9.15624H27.6614V24.4993C27.6614 25.1318 26.7676 26.3069 26.2359 26.6875C23.8071 28.4228 20.2667 26.9153 20.1759 23.8346C20.4605 18.8538 19.8139 13.4831 20.1759 8.54922C20.4685 4.56405 23.3141 2.16946 27.1884 1.91486C32.1703 1.5879 37.5209 2.15874 42.5415 1.93898C46.2288 2.3048 48.8994 4.77443 49.1773 8.54922C49.5393 13.4831 48.8914 18.8538 49.1773 23.8346C49.1025 27.0292 45.2495 28.5072 42.8915 26.5106C42.468 26.1515 41.6905 25.0192 41.6905 24.4993V9.15624H41.6891Z" fill="white"/>
<path d="M7.48814 9.15624C7.59769 9.46846 7.78472 9.67348 8.03322 9.88253C10.1948 11.709 12.82 12.2972 14.9041 14.7829C18.3376 18.878 17.5187 25.4132 11.9984 27.0131C10.2656 27.5156 4.7427 27.6269 2.93913 27.3213C-1.25984 26.6111 -0.750834 20.1443 3.41474 20.1443H9.49344C9.41061 19.9058 9.27434 19.7182 9.08597 19.548C7.31713 17.9614 4.45814 17.1011 2.61048 15.1889C-2.06677 10.3515 -0.346033 2.45221 6.8816 1.91486C8.5155 1.79426 12.4032 1.71252 13.9356 1.95238C17.6776 2.53663 18.0063 8.08022 14.5448 8.92978C14.2923 8.99142 13.3678 9.1549 13.166 9.1549H7.48814V9.15624Z" fill="white"/>
<path d="M55.9934 27.4191C57.9989 27.4191 59.6246 25.7885 59.6246 23.777C59.6246 21.7655 57.9989 20.1349 55.9934 20.1349C53.988 20.1349 52.3622 21.7655 52.3622 23.777C52.3622 25.7885 53.988 27.4191 55.9934 27.4191Z" fill="white"/>
<path d="M69.1248 4.99821H70.1869L71.07 11.6915H71.2049L72.5222 4.99821H73.8395L75.1568 11.6915H75.2917L76.1748 4.99821H77.2075L76.0251 12.7421H74.4687L73.2423 6.25916H73.1221L71.8649 12.7421H70.3085L69.1262 4.99821H69.1248Z" fill="white"/>
<path d="M78.6556 8.88423C78.6556 6.4079 80.1065 4.81731 82.2013 4.81731C84.2961 4.81731 85.6281 6.4079 85.6281 8.5988V9.16965H79.9128V9.53011C79.9128 10.8956 80.8253 11.8858 82.2775 11.8858C83.3102 11.8858 84.0877 11.3753 84.4925 10.5351L85.3756 11.1354C84.912 12.1713 83.8045 12.9217 82.2788 12.9217C80.0638 12.9217 78.6583 11.3311 78.6583 8.88423H78.6556ZM79.9128 8.16464V8.26916H84.3416V8.10434C84.3416 6.73888 83.4732 5.80758 82.2013 5.80758C80.9295 5.80758 79.9115 6.81258 79.9115 8.1633L79.9128 8.16464Z" fill="white"/>
<path d="M88.0529 1.63615H89.2499V6.25916H89.3101C89.8044 5.31312 90.6113 4.81865 91.6894 4.81865C93.5745 4.81865 94.7114 6.3342 94.7114 8.87082C94.7114 11.4075 93.5745 12.923 91.6894 12.923C90.6126 12.923 89.8044 12.4272 89.3101 11.4825H89.2499V12.7434H88.0529V1.63615ZM93.4249 9.53011V8.20886C93.4249 6.81258 92.6166 5.88262 91.2259 5.88262C90.1638 5.88262 89.2513 6.43738 89.2513 7.4732V10.2644C89.2513 11.3003 90.1638 11.855 91.2259 11.855C92.618 11.855 93.4249 10.9251 93.4249 9.52877V9.53011Z" fill="white"/>
<path d="M75.0351 24.9723H74.975C74.4807 25.9183 73.6738 26.4128 72.5956 26.4128C70.7106 26.4128 69.5737 24.8973 69.5737 22.3606C69.5737 19.824 70.7106 18.3085 72.5956 18.3085C73.6724 18.3085 74.4807 18.8043 74.975 19.749H75.0351V15.126H76.2322V26.2319H75.0351V24.971V24.9723ZM75.0351 23.7569V20.9657C75.0351 19.9299 74.1227 19.3751 73.0606 19.3751C71.6685 19.3751 70.8615 20.3051 70.8615 21.7014V23.0226C70.8615 24.4189 71.6698 25.3488 73.0606 25.3488C74.1227 25.3488 75.0351 24.7941 75.0351 23.7583V23.7569Z" fill="white"/>
<path d="M78.6556 22.3767C78.6556 19.9004 80.1065 18.3098 82.2013 18.3098C84.2961 18.3098 85.6281 19.9004 85.6281 22.0913V22.6621H79.9128V23.0226C79.9128 24.3881 80.8253 25.3783 82.2775 25.3783C83.3102 25.3783 84.0877 24.8678 84.4925 24.0276L85.3756 24.6279C84.912 25.6637 83.8045 26.4141 82.2788 26.4141C80.0638 26.4141 78.6583 24.8236 78.6583 22.3767H78.6556ZM79.9128 21.6558V21.7603H84.3416V21.5955C84.3416 20.23 83.4732 19.2987 82.2013 19.2987C80.9295 19.2987 79.9115 20.3037 79.9115 21.6545L79.9128 21.6558Z" fill="white"/>
<path d="M87.6334 24.8973L88.4417 24.1924C89.1751 24.9723 90.0128 25.4078 91.2392 25.4078C92.4657 25.4078 93.2886 24.987 93.2886 24.0718C93.2886 23.2611 92.63 23.0507 91.9273 22.9462L90.7155 22.7667C89.6227 22.6018 88.0676 22.3017 88.0676 20.62C88.0676 19.0736 89.3849 18.3085 91.1804 18.3085C92.5725 18.3085 93.5892 18.7735 94.3227 19.5547L93.5451 20.2903C93.1857 19.8548 92.4977 19.3148 91.1364 19.3148C89.9246 19.3148 89.2513 19.7503 89.2513 20.5449C89.2513 21.3396 89.9246 21.566 90.6126 21.6705L91.8244 21.8501C92.9319 22.0149 94.4723 22.3151 94.4723 23.9968C94.4723 25.5271 93.1857 26.4128 91.2098 26.4128C89.5933 26.4128 88.4417 25.8125 87.6334 24.8973Z" fill="white"/>
<path d="M97.195 25.2122H99.9778V19.5091H97.195V18.488H101.175V25.2122H103.779V26.2333H97.195V25.2122ZM99.6345 16.013V15.7732C99.6345 15.3377 99.8883 15.008 100.578 15.008C101.267 15.008 101.521 15.3377 101.521 15.7732V16.013C101.521 16.4485 101.267 16.7782 100.578 16.7782C99.8883 16.7782 99.6345 16.4485 99.6345 16.013Z" fill="white"/>
<path d="M109.091 29.4144C106.607 29.4144 105.589 28.7243 105.589 27.4929C105.589 26.6674 106.053 26.2172 106.846 26.0068V25.8272C106.412 25.6168 106.158 25.2872 106.158 24.7619C106.158 23.966 106.757 23.6068 107.55 23.4112V23.3509C106.607 22.9301 106.039 22.0752 106.039 20.9791C106.039 19.4033 107.221 18.3071 109.032 18.3071C109.616 18.3071 110.125 18.4117 110.557 18.622V18.4867C110.557 17.8864 110.811 17.4361 111.485 17.4361H112.906V18.4867H111.171V19.012C111.724 19.4917 112.039 20.1671 112.039 20.9778C112.039 22.5536 110.842 23.6497 109.032 23.6497C108.778 23.6497 108.537 23.635 108.298 23.5894C107.835 23.6792 107.191 23.9499 107.191 24.4752C107.191 24.9401 107.7 25.046 108.433 25.046H110.139C112.13 25.046 112.982 25.8567 112.982 27.1177C112.982 28.6788 111.665 29.4144 109.092 29.4144H109.091ZM110.182 26.1582H107.503C106.994 26.3686 106.726 26.713 106.726 27.2088C106.726 27.8841 107.22 28.455 108.476 28.455H109.644C111.036 28.455 111.859 28.0195 111.859 27.1793C111.859 26.5642 111.424 26.1582 110.183 26.1582H110.182ZM110.782 21.1908V20.7553C110.782 19.8401 110.229 19.2398 109.032 19.2398C107.835 19.2398 107.296 19.8401 107.296 20.7553V21.1908C107.296 22.106 107.849 22.7211 109.032 22.7211C110.214 22.7211 110.782 22.106 110.782 21.1908Z" fill="white"/>
<path d="M115.03 26.2332V18.4894H116.227V19.7503H116.287C116.616 18.9852 117.215 18.3098 118.486 18.3098C120.103 18.3098 121.165 19.3898 121.165 21.2659V26.2332H119.968V21.4762C119.968 20.0652 119.324 19.3751 118.143 19.3751C117.185 19.3751 116.227 19.8401 116.227 20.8612V26.2346H115.03V26.2332Z" fill="white"/>
</g>
<defs>
<clipPath id="clip0_96_2">
<rect width="126" height="30" fill="white"/>
</clipPath>
</defs>
</svg>
