<svg width="60" height="26" viewBox="0 0 60 26" fill="none" xmlns="http://www.w3.org/2000/svg">
<path d="M41.6892 7.65624H38.4828V22.1953C38.4828 25.3001 35.1015 26.7902 32.5618 25.3202C32.0087 24.9999 31.0014 23.7376 31.0014 23.1333V7.65624H27.6614V22.9993C27.6614 23.6318 26.7676 24.807 26.2359 25.1875C23.8071 26.9228 20.2668 25.4153 20.1759 22.3346C20.4605 17.3538 19.8139 11.9831 20.1759 7.04922C20.4685 3.06405 23.3141 0.669465 27.1885 0.414864C32.1703 0.0879036 37.5209 0.658745 42.5415 0.438985C46.2288 0.804806 48.8994 3.27443 49.1773 7.04922C49.5394 11.9831 48.8914 17.3538 49.1773 22.3346C49.1025 25.5292 45.2495 27.0072 42.8916 25.0106C42.468 24.6515 41.6905 23.5192 41.6905 22.9993V7.65624H41.6892Z" fill="#1C2B4C"/>
<path d="M7.48815 7.65624C7.5977 7.96846 7.78474 8.17348 8.03323 8.38253C10.1948 10.209 12.82 10.7972 14.9042 13.2829C18.3376 17.378 17.5187 23.9132 11.9984 25.5131C10.2656 26.0156 4.74272 26.1269 2.93915 25.8213C-1.25983 25.1111 -0.750818 18.6443 3.41476 18.6443H9.49345C9.41062 18.4058 9.27435 18.2182 9.08598 18.048C7.31715 16.4614 4.45816 15.6011 2.6105 13.6889C-2.06676 8.85153 -0.346018 0.952206 6.88162 0.414864C8.51552 0.294264 12.4032 0.212524 13.9356 0.452384C17.6776 1.03663 18.0063 6.58022 14.5448 7.42978C14.2923 7.49142 13.3678 7.6549 13.1661 7.6549H7.48815V7.65624Z" fill="#1C2B4C"/>
<path d="M55.9935 25.9191C57.9989 25.9191 59.6247 24.2885 59.6247 22.277C59.6247 20.2655 57.9989 18.6349 55.9935 18.6349C53.988 18.6349 52.3623 20.2655 52.3623 22.277C52.3623 24.2885 53.988 25.9191 55.9935 25.9191Z" fill="#1C2B4C"/>
</svg>
